<?xml version="1.0" encoding="utf-8"?>
<!-- Generator: Adobe Illustrator 19.1.0, SVG Export Plug-In . SVG Version: 6.00 Build 0)  -->
<svg version="1.1" id="Layer_1" xmlns="http://www.w3.org/2000/svg" xmlns:xlink="http://www.w3.org/1999/xlink" x="0px" y="0px"
	 viewBox="0 0 15 16.4" style="enable-background:new 0 0 15 16.4;" xml:space="preserve">
<g>
	<g>
		<path style="fill:#FFFFFF;" d="M7.5,8.2c1.1,0,2.1-0.4,2.9-1.2c0.8-0.8,1.2-1.8,1.2-2.9c0-1.1-0.4-2.1-1.2-2.9
			C9.6,0.4,8.6,0,7.5,0S5.4,0.4,4.6,1.2C3.8,2,3.4,3,3.4,4.1c0,1.1,0.4,2.1,1.2,2.9C5.4,7.8,6.4,8.2,7.5,8.2z"/>
		<path style="fill:#FFFFFF;" d="M15,12.5c0-0.4-0.1-0.7-0.1-1.2c-0.1-0.4-0.2-0.8-0.3-1.2c-0.1-0.4-0.3-0.7-0.5-1
			c-0.2-0.3-0.4-0.6-0.7-0.9c-0.2-0.2-0.6-0.4-0.9-0.6c-0.4-0.1-0.8-0.2-1.2-0.2c-0.1,0-0.2,0.1-0.4,0.2c-0.2,0.2-0.5,0.3-0.8,0.5
			C9.8,8.4,9.4,8.6,8.9,8.8C8.4,8.9,8,9,7.5,9C7,9,6.5,8.9,6.1,8.8C5.6,8.6,5.2,8.4,4.9,8.2C4.6,8.1,4.4,7.9,4.1,7.7
			C3.9,7.6,3.7,7.5,3.7,7.5c-0.4,0-0.8,0.1-1.2,0.2C2.1,7.9,1.8,8,1.6,8.3C1.3,8.5,1.1,8.8,0.9,9.1c-0.2,0.3-0.3,0.7-0.5,1
			c-0.1,0.4-0.2,0.7-0.3,1.2c-0.1,0.4-0.1,0.8-0.1,1.2c0,0.4,0,0.7,0,1.1c0,0.9,0.3,1.5,0.8,2c0.5,0.5,1.2,0.7,2.1,0.7h9.3
			c0.9,0,1.5-0.2,2.1-0.7c0.5-0.5,0.8-1.2,0.8-2C15,13.2,15,12.9,15,12.5z"/>
	</g>
</g>
</svg>
