<?xml version="1.0" encoding="utf-8"?>
<!-- Generator: Adobe Illustrator 19.1.0, SVG Export Plug-In . SVG Version: 6.00 Build 0)  -->
<svg version="1.1" id="Layer_1" xmlns="http://www.w3.org/2000/svg" xmlns:xlink="http://www.w3.org/1999/xlink" x="0px" y="0px"
	 viewBox="0 0 22.8 15" style="enable-background:new 0 0 22.8 15;" xml:space="preserve">
<g>
	<path style="fill:#BDC3C8;" d="M11.4,0C6.4,0,2,3,0,7.3C0,7.4,0,7.5,0,7.7c2,4.3,6.3,7.3,11.4,7.3s9.4-3,11.4-7.3
		c0.1-0.1,0.1-0.3,0-0.4C20.8,3,16.5,0,11.4,0z M11.4,12.6c-2.8,0-5.2-2.3-5.2-5.2c0-2.8,2.3-5.2,5.2-5.2c2.8,0,5.2,2.3,5.2,5.2
		S14.3,12.6,11.4,12.6z"/>
	<circle style="fill:#BDC3C8;" cx="11.4" cy="7.5" r="3.3"/>
</g>
</svg>
