<?xml version="1.0" encoding="utf-8"?>
<!-- Generator: Adobe Illustrator 19.1.0, SVG Export Plug-In . SVG Version: 6.00 Build 0)  -->
<svg version="1.1" id="Layer_1" xmlns="http://www.w3.org/2000/svg" xmlns:xlink="http://www.w3.org/1999/xlink" x="0px" y="0px"
	 viewBox="0 0 8 8" style="enable-background:new 0 0 8 8;" xml:space="preserve">
<g>
	<path style="fill:#FFFFFF;" d="M7.8,3.1C7.7,3,7.6,2.9,7.5,2.9H5.1V0.5c0-0.2-0.1-0.3-0.2-0.4C4.8,0.1,4.7,0,4.5,0H3.5
		C3.3,0,3.2,0.1,3.1,0.2S2.9,0.4,2.9,0.5v2.4H0.5C0.4,2.9,0.3,3,0.2,3.1S0,3.3,0,3.5v1.1c0,0.2,0.1,0.3,0.2,0.4
		C0.3,5,0.4,5.1,0.5,5.1h2.4v2.4c0,0.2,0.1,0.3,0.2,0.4C3.2,7.9,3.3,8,3.5,8h1.1c0.2,0,0.3-0.1,0.4-0.2C5,7.7,5.1,7.6,5.1,7.5V5.1
		h2.4c0.2,0,0.3-0.1,0.4-0.2C7.9,4.8,8,4.7,8,4.5V3.5C8,3.3,7.9,3.2,7.8,3.1z"/>
</g>
</svg>
