<?xml version="1.0" encoding="utf-8"?>
<!-- Generator: Adobe Illustrator 19.1.0, SVG Export Plug-In . SVG Version: 6.00 Build 0)  -->
<svg version="1.1" id="Layer_1" xmlns="http://www.w3.org/2000/svg" xmlns:xlink="http://www.w3.org/1999/xlink" x="0px" y="0px"
	 viewBox="0 0 18 14.1" style="enable-background:new 0 0 18 14.1;" xml:space="preserve">
<g>
	<g>
		<path style="fill:#678198;" d="M1.9,5.1c-0.5,0-1,0.2-1.4,0.6C0.2,6.1,0,6.5,0,7.1c0,0.5,0.2,1,0.6,1.4C0.9,8.8,1.4,9,1.9,9
			c0.5,0,1-0.2,1.4-0.6C3.7,8,3.9,7.6,3.9,7.1c0-0.5-0.2-1-0.6-1.4C2.9,5.3,2.5,5.1,1.9,5.1z"/>
		<path style="fill:#678198;" d="M1.9,0c-0.5,0-1,0.2-1.4,0.6C0.2,0.9,0,1.4,0,1.9c0,0.5,0.2,1,0.6,1.4c0.4,0.4,0.8,0.6,1.4,0.6
			c0.5,0,1-0.2,1.4-0.6c0.4-0.4,0.6-0.8,0.6-1.4c0-0.5-0.2-1-0.6-1.4C2.9,0.2,2.5,0,1.9,0z"/>
		<path style="fill:#678198;" d="M1.9,10.3c-0.5,0-1,0.2-1.4,0.6C0.2,11.2,0,11.7,0,12.2c0,0.5,0.2,1,0.6,1.4
			c0.4,0.4,0.8,0.6,1.4,0.6c0.5,0,1-0.2,1.4-0.6c0.4-0.4,0.6-0.8,0.6-1.4c0-0.5-0.2-1-0.6-1.4C2.9,10.5,2.5,10.3,1.9,10.3z"/>
		<path style="fill:#678198;" d="M17.9,0.7c-0.1-0.1-0.1-0.1-0.2-0.1H5.5c-0.1,0-0.2,0-0.2,0.1C5.2,0.8,5.1,0.9,5.1,1v1.9
			c0,0.1,0,0.2,0.1,0.2c0.1,0.1,0.1,0.1,0.2,0.1h12.2c0.1,0,0.2,0,0.2-0.1C17.9,3,18,3,18,2.9V1C18,0.9,17.9,0.8,17.9,0.7z"/>
		<path style="fill:#678198;" d="M17.6,5.8H5.5c-0.1,0-0.2,0-0.2,0.1C5.2,5.9,5.1,6,5.1,6.1V8c0,0.1,0,0.2,0.1,0.2
			c0.1,0.1,0.1,0.1,0.2,0.1h12.2c0.1,0,0.2,0,0.2-0.1C17.9,8.2,18,8.1,18,8V6.1c0-0.1,0-0.2-0.1-0.2C17.8,5.8,17.7,5.8,17.6,5.8z"/>
		<path style="fill:#678198;" d="M17.6,10.9H5.5c-0.1,0-0.2,0-0.2,0.1c-0.1,0.1-0.1,0.1-0.1,0.2v1.9c0,0.1,0,0.2,0.1,0.2
			c0.1,0.1,0.1,0.1,0.2,0.1h12.2c0.1,0,0.2,0,0.2-0.1c0.1-0.1,0.1-0.1,0.1-0.2v-1.9c0-0.1,0-0.2-0.1-0.2
			C17.8,10.9,17.7,10.9,17.6,10.9z"/>
	</g>
</g>
</svg>
